<mxfile host="app.diagrams.net" modified="2023-08-03T13:32:39.743Z" agent="Mozilla/5.0 (Windows NT 10.0; Win64; x64) AppleWebKit/537.36 (KHTML, like Gecko) Chrome/115.0.0.0 Safari/537.36" etag="ZmUR1b9R43xqn32CapKy" version="21.6.6" type="github">
  <diagram name="Page-1" id="yaQ-Vd1ig9odrb6C37Cf">
    <mxGraphModel dx="-1350" dy="-6380" grid="1" gridSize="10" guides="1" tooltips="1" connect="1" arrows="1" fold="1" page="1" pageScale="1" pageWidth="827" pageHeight="1169" math="0" shadow="0">
      <root>
        <mxCell id="0" />
        <mxCell id="1" parent="0" />
        <mxCell id="_TxfoMEnUBbY3dKYVvTl-1" value="" style="rounded=0;whiteSpace=wrap;html=1;movable=1;resizable=1;rotatable=1;deletable=1;editable=1;locked=0;connectable=1;" vertex="1" parent="1">
          <mxGeometry x="2450" y="7038" width="1070" height="650" as="geometry" />
        </mxCell>
        <mxCell id="_TxfoMEnUBbY3dKYVvTl-2" value="" style="rounded=0;whiteSpace=wrap;html=1;movable=1;resizable=1;rotatable=1;deletable=1;editable=1;locked=0;connectable=1;" vertex="1" parent="1">
          <mxGeometry x="2640" y="7083" width="730" height="585" as="geometry" />
        </mxCell>
        <mxCell id="_TxfoMEnUBbY3dKYVvTl-3" value="" style="rounded=0;whiteSpace=wrap;html=1;fillColor=#f5f5f5;strokeColor=#666666;fontColor=#333333;fontStyle=0" vertex="1" parent="1">
          <mxGeometry x="2666.13" y="7318" width="678.75" height="330" as="geometry" />
        </mxCell>
        <mxCell id="_TxfoMEnUBbY3dKYVvTl-4" value="" style="rounded=0;whiteSpace=wrap;html=1;fillColor=#f5f5f5;strokeColor=#666666;fontColor=#333333;" vertex="1" parent="1">
          <mxGeometry x="2666.12" y="7113" width="461.5" height="195" as="geometry" />
        </mxCell>
        <mxCell id="_TxfoMEnUBbY3dKYVvTl-5" value="&amp;lt;&amp;lt;depends on&amp;gt;&amp;gt;" style="edgeStyle=orthogonalEdgeStyle;rounded=0;orthogonalLoop=1;jettySize=auto;html=1;dashed=1;" edge="1" parent="1" source="_TxfoMEnUBbY3dKYVvTl-14" target="_TxfoMEnUBbY3dKYVvTl-13">
          <mxGeometry relative="1" as="geometry" />
        </mxCell>
        <mxCell id="_TxfoMEnUBbY3dKYVvTl-6" value="Level 1" style="text;html=1;align=center;verticalAlign=middle;resizable=0;points=[];autosize=1;strokeColor=none;fillColor=none;" vertex="1" parent="1">
          <mxGeometry x="2975" y="7053" width="60" height="30" as="geometry" />
        </mxCell>
        <mxCell id="_TxfoMEnUBbY3dKYVvTl-7" value="Student System" style="text;html=1;align=center;verticalAlign=middle;resizable=0;points=[];autosize=1;strokeColor=none;fillColor=none;" vertex="1" parent="1">
          <mxGeometry x="2951" y="7083" width="110" height="30" as="geometry" />
        </mxCell>
        <mxCell id="_TxfoMEnUBbY3dKYVvTl-8" style="rounded=0;orthogonalLoop=1;jettySize=auto;html=1;exitX=0.5;exitY=0.5;exitDx=0;exitDy=0;exitPerimeter=0;entryX=0;entryY=0.5;entryDx=0;entryDy=0;endArrow=none;endFill=0;" edge="1" parent="1" source="_TxfoMEnUBbY3dKYVvTl-12" target="_TxfoMEnUBbY3dKYVvTl-13">
          <mxGeometry relative="1" as="geometry" />
        </mxCell>
        <mxCell id="_TxfoMEnUBbY3dKYVvTl-9" style="rounded=0;orthogonalLoop=1;jettySize=auto;html=1;exitX=0.5;exitY=0.5;exitDx=0;exitDy=0;exitPerimeter=0;endArrow=none;endFill=0;" edge="1" parent="1" source="_TxfoMEnUBbY3dKYVvTl-12" target="_TxfoMEnUBbY3dKYVvTl-17">
          <mxGeometry relative="1" as="geometry" />
        </mxCell>
        <mxCell id="_TxfoMEnUBbY3dKYVvTl-10" style="rounded=0;orthogonalLoop=1;jettySize=auto;html=1;exitX=0.5;exitY=0.5;exitDx=0;exitDy=0;exitPerimeter=0;entryX=0;entryY=0.5;entryDx=0;entryDy=0;endArrow=none;endFill=0;" edge="1" parent="1" source="_TxfoMEnUBbY3dKYVvTl-12" target="_TxfoMEnUBbY3dKYVvTl-20">
          <mxGeometry relative="1" as="geometry" />
        </mxCell>
        <mxCell id="_TxfoMEnUBbY3dKYVvTl-11" style="rounded=0;orthogonalLoop=1;jettySize=auto;html=1;exitX=0.5;exitY=0.5;exitDx=0;exitDy=0;exitPerimeter=0;entryX=0;entryY=0.5;entryDx=0;entryDy=0;endArrow=none;endFill=0;" edge="1" parent="1" source="_TxfoMEnUBbY3dKYVvTl-12" target="_TxfoMEnUBbY3dKYVvTl-18">
          <mxGeometry relative="1" as="geometry" />
        </mxCell>
        <mxCell id="_TxfoMEnUBbY3dKYVvTl-31" style="rounded=0;orthogonalLoop=1;jettySize=auto;html=1;exitX=0.5;exitY=0.5;exitDx=0;exitDy=0;exitPerimeter=0;entryX=0.035;entryY=0.748;entryDx=0;entryDy=0;entryPerimeter=0;endArrow=none;endFill=0;" edge="1" parent="1" source="_TxfoMEnUBbY3dKYVvTl-12" target="_TxfoMEnUBbY3dKYVvTl-14">
          <mxGeometry relative="1" as="geometry" />
        </mxCell>
        <mxCell id="_TxfoMEnUBbY3dKYVvTl-12" value="Student" style="shape=umlActor;verticalLabelPosition=bottom;verticalAlign=top;html=1;outlineConnect=0;" vertex="1" parent="1">
          <mxGeometry x="2531.25" y="7278" width="30" height="70" as="geometry" />
        </mxCell>
        <mxCell id="_TxfoMEnUBbY3dKYVvTl-13" value="login" style="ellipse;whiteSpace=wrap;html=1;" vertex="1" parent="1">
          <mxGeometry x="2688.87" y="7138" width="140" height="70" as="geometry" />
        </mxCell>
        <mxCell id="_TxfoMEnUBbY3dKYVvTl-14" value="Manage Profile" style="ellipse;whiteSpace=wrap;html=1;" vertex="1" parent="1">
          <mxGeometry x="2958.87" y="7138" width="140" height="70" as="geometry" />
        </mxCell>
        <mxCell id="_TxfoMEnUBbY3dKYVvTl-15" value="Enroll in Course" style="ellipse;whiteSpace=wrap;html=1;" vertex="1" parent="1">
          <mxGeometry x="2956.13" y="7454.5" width="140" height="70" as="geometry" />
        </mxCell>
        <mxCell id="_TxfoMEnUBbY3dKYVvTl-16" value="&amp;lt;&amp;lt;include&amp;gt;&amp;gt;" style="rounded=0;orthogonalLoop=1;jettySize=auto;html=1;entryX=0.032;entryY=0.354;entryDx=0;entryDy=0;dashed=1;entryPerimeter=0;" edge="1" parent="1" source="_TxfoMEnUBbY3dKYVvTl-17" target="_TxfoMEnUBbY3dKYVvTl-15">
          <mxGeometry relative="1" as="geometry" />
        </mxCell>
        <mxCell id="_TxfoMEnUBbY3dKYVvTl-17" value="Search for Courses" style="ellipse;whiteSpace=wrap;html=1;" vertex="1" parent="1">
          <mxGeometry x="2686.13" y="7408" width="140" height="70" as="geometry" />
        </mxCell>
        <mxCell id="_TxfoMEnUBbY3dKYVvTl-18" value="Submit Reports" style="ellipse;whiteSpace=wrap;html=1;" vertex="1" parent="1">
          <mxGeometry x="2686.13" y="7568" width="140" height="70" as="geometry" />
        </mxCell>
        <mxCell id="_TxfoMEnUBbY3dKYVvTl-19" value="&amp;lt;&amp;lt;include&amp;gt;&amp;gt;" style="rounded=0;orthogonalLoop=1;jettySize=auto;html=1;exitX=1;exitY=0.5;exitDx=0;exitDy=0;dashed=1;entryX=0.024;entryY=0.635;entryDx=0;entryDy=0;entryPerimeter=0;" edge="1" parent="1" source="_TxfoMEnUBbY3dKYVvTl-20" target="_TxfoMEnUBbY3dKYVvTl-15">
          <mxGeometry relative="1" as="geometry">
            <mxPoint x="2970" y="7418" as="targetPoint" />
          </mxGeometry>
        </mxCell>
        <mxCell id="_TxfoMEnUBbY3dKYVvTl-20" value="Browse Roadmaps" style="ellipse;whiteSpace=wrap;html=1;" vertex="1" parent="1">
          <mxGeometry x="2686.13" y="7488" width="140" height="70" as="geometry" />
        </mxCell>
        <mxCell id="_TxfoMEnUBbY3dKYVvTl-21" value="&amp;lt;&amp;lt;extend&amp;gt;&amp;gt;" style="rounded=0;orthogonalLoop=1;jettySize=auto;html=1;exitX=0;exitY=0.5;exitDx=0;exitDy=0;entryX=1;entryY=1;entryDx=0;entryDy=0;dashed=1;" edge="1" parent="1" source="_TxfoMEnUBbY3dKYVvTl-22" target="_TxfoMEnUBbY3dKYVvTl-15">
          <mxGeometry relative="1" as="geometry" />
        </mxCell>
        <mxCell id="_TxfoMEnUBbY3dKYVvTl-22" value="Monitor Course Progress" style="ellipse;whiteSpace=wrap;html=1;" vertex="1" parent="1">
          <mxGeometry x="3158.88" y="7568" width="140" height="70" as="geometry" />
        </mxCell>
        <mxCell id="_TxfoMEnUBbY3dKYVvTl-23" value="&amp;lt;&amp;lt;extend&amp;gt;&amp;gt;" style="rounded=0;orthogonalLoop=1;jettySize=auto;html=1;exitX=0;exitY=0.5;exitDx=0;exitDy=0;entryX=1;entryY=0;entryDx=0;entryDy=0;dashed=1;" edge="1" parent="1" source="_TxfoMEnUBbY3dKYVvTl-24" target="_TxfoMEnUBbY3dKYVvTl-15">
          <mxGeometry relative="1" as="geometry" />
        </mxCell>
        <mxCell id="_TxfoMEnUBbY3dKYVvTl-24" value="Comment On Course" style="ellipse;whiteSpace=wrap;html=1;" vertex="1" parent="1">
          <mxGeometry x="3158.88" y="7328" width="140" height="70" as="geometry" />
        </mxCell>
        <mxCell id="_TxfoMEnUBbY3dKYVvTl-25" value="&amp;lt;&amp;lt;extend&amp;gt;&amp;gt;" style="rounded=0;orthogonalLoop=1;jettySize=auto;html=1;exitX=0;exitY=0.5;exitDx=0;exitDy=0;entryX=0.929;entryY=0.287;entryDx=0;entryDy=0;entryPerimeter=0;dashed=1;" edge="1" parent="1" source="_TxfoMEnUBbY3dKYVvTl-26" target="_TxfoMEnUBbY3dKYVvTl-15">
          <mxGeometry relative="1" as="geometry" />
        </mxCell>
        <mxCell id="_TxfoMEnUBbY3dKYVvTl-26" value="Rate Course" style="ellipse;whiteSpace=wrap;html=1;" vertex="1" parent="1">
          <mxGeometry x="3158.88" y="7406" width="140" height="70" as="geometry" />
        </mxCell>
        <mxCell id="_TxfoMEnUBbY3dKYVvTl-27" value="&amp;lt;&amp;lt;extend&amp;gt;&amp;gt;" style="rounded=0;orthogonalLoop=1;jettySize=auto;html=1;exitX=0;exitY=0.5;exitDx=0;exitDy=0;entryX=0.965;entryY=0.696;entryDx=0;entryDy=0;entryPerimeter=0;dashed=1;" edge="1" parent="1" source="_TxfoMEnUBbY3dKYVvTl-28" target="_TxfoMEnUBbY3dKYVvTl-15">
          <mxGeometry relative="1" as="geometry" />
        </mxCell>
        <mxCell id="_TxfoMEnUBbY3dKYVvTl-28" value="Get Certificate" style="ellipse;whiteSpace=wrap;html=1;" vertex="1" parent="1">
          <mxGeometry x="3158.88" y="7488" width="140" height="70" as="geometry" />
        </mxCell>
        <mxCell id="_TxfoMEnUBbY3dKYVvTl-29" value="&amp;lt;&amp;lt;extend&amp;gt;&amp;gt;" style="rounded=0;orthogonalLoop=1;jettySize=auto;html=1;exitX=0;exitY=0.5;exitDx=0;exitDy=0;entryX=0.958;entryY=0.714;entryDx=0;entryDy=0;entryPerimeter=0;dashed=1;" edge="1" parent="1" source="_TxfoMEnUBbY3dKYVvTl-30" target="_TxfoMEnUBbY3dKYVvTl-13">
          <mxGeometry relative="1" as="geometry" />
        </mxCell>
        <mxCell id="_TxfoMEnUBbY3dKYVvTl-30" value="logout" style="ellipse;whiteSpace=wrap;html=1;" vertex="1" parent="1">
          <mxGeometry x="2961.25" y="7221" width="140" height="70" as="geometry" />
        </mxCell>
      </root>
    </mxGraphModel>
  </diagram>
</mxfile>
